<?xml version="1.0" standalone="no"?>
<!DOCTYPE svg PUBLIC "-//W3C//DTD SVG 20010904//EN"
 "http://www.w3.org/TR/2001/REC-SVG-20010904/DTD/svg10.dtd">
<svg version="1.0" xmlns="http://www.w3.org/2000/svg"
 width="512.000000pt" height="512.000000pt" viewBox="0 0 512.000000 512.000000"
 preserveAspectRatio="xMidYMid meet">
<metadata>
Created by potrace 1.14, written by Peter Selinger 2001-2017
</metadata>
<g transform="translate(0.000000,512.000000) scale(0.100000,-0.100000)"
fill="#000000" stroke="none">
<path d="M2730 4474 c-731 -54 -870 -66 -956 -87 -369 -90 -661 -378 -761
-752 -22 -86 -26 -121 -27 -250 -1 -152 5 -195 46 -325 24 -74 82 -194 127
-260 16 -25 27 -48 23 -51 -4 -4 -115 -39 -247 -79 -138 -42 -283 -93 -340
-120 -252 -118 -447 -334 -534 -592 -47 -138 -56 -192 -55 -353 1 -129 4 -164
27 -249 81 -303 284 -546 570 -681 114 -54 220 -83 344 -93 200 -16 371 16
548 103 90 44 159 91 377 259 147 113 271 206 276 206 5 0 14 -12 21 -27 25
-54 104 -163 164 -225 313 -325 799 -413 1203 -218 96 47 217 135 295 216 48
49 435 554 1070 1394 73 97 137 194 156 235 70 154 80 335 28 491 -39 115 -79
179 -169 270 -132 132 -265 191 -453 201 -57 3 -103 7 -103 8 0 1 11 27 24 58
122 274 33 630 -206 826 -77 62 -200 125 -288 146 -102 23 -240 17 -1160 -51z
m-545 -235 c150 -27 315 -112 435 -226 255 -240 341 -612 219 -943 -82 -223
-286 -427 -509 -509 -106 -39 -191 -54 -310 -53 -229 0 -421 74 -583 222 -121
111 -196 225 -246 375 -137 409 51 862 436 1054 179 89 357 115 558 80z m-915
-1779 c240 -68 446 -240 555 -463 198 -408 53 -897 -334 -1131 -152 -92 -319
-133 -501 -123 -621 35 -1007 693 -735 1254 121 248 366 434 637 483 87 15
292 4 378 -20z m2055 -5 c152 -44 297 -134 402 -248 438 -480 224 -1243 -402
-1433 -80 -24 -107 -28 -235 -28 -170 -1 -261 19 -388 84 -107 54 -155 89
-235 167 -180 177 -266 400 -254 657 7 149 30 236 100 370 124 238 358 406
634 456 91 17 279 4 378 -25z"/>
<path d="M1855 4124 c-39 -8 -116 -38 -175 -66 -91 -45 -117 -64 -195 -142
-73 -73 -100 -109 -138 -182 -68 -134 -91 -237 -84 -389 9 -216 85 -378 248
-529 210 -194 535 -252 800 -141 283 119 468 397 469 703 0 125 -22 217 -82
342 -44 92 -61 115 -142 195 -79 79 -105 98 -196 143 -66 32 -134 57 -182 67
-95 19 -230 18 -323 -1z m330 -90 c179 -42 351 -179 433 -344 54 -109 74 -191
75 -309 2 -300 -190 -556 -488 -651 -103 -33 -270 -32 -377 3 -292 94 -482
347 -481 642 0 122 16 193 70 304 38 79 59 108 127 176 175 173 400 237 641
179z"/>
<path d="M1880 3924 c-198 -52 -354 -209 -405 -409 -89 -347 181 -694 541
-695 503 -1 754 600 399 955 -112 112 -243 166 -400 164 -44 0 -105 -7 -135
-15z m210 -74 c78 -13 189 -64 246 -114 82 -71 137 -177 154 -297 43 -301
-228 -572 -529 -530 -104 14 -209 66 -280 139 -70 72 -107 146 -128 251 -15
73 -15 88 -1 159 42 211 189 357 393 391 70 12 73 12 145 1z"/>
<path d="M1913 3726 c-307 -100 -344 -520 -58 -666 64 -33 74 -35 164 -35 83
0 104 4 153 27 73 34 142 103 176 176 23 49 27 70 27 152 0 82 -4 103 -27 152
-34 72 -98 137 -172 173 -70 34 -193 44 -263 21z m222 -95 c172 -78 214 -312
80 -446 -53 -53 -117 -79 -190 -79 -73 0 -121 15 -172 55 -151 120 -143 339
16 447 79 54 177 63 266 23z"/>
<path d="M1939 3517 c-77 -52 -101 -140 -58 -217 80 -142 299 -81 299 82 0 85
-75 158 -160 158 -32 0 -58 -7 -81 -23z m133 -86 c9 -9 20 -28 23 -43 6 -22 1
-33 -23 -58 -38 -38 -66 -38 -103 -1 -33 33 -36 56 -13 89 30 43 80 49 116 13z"/>
<path d="M935 2371 c-298 -48 -538 -255 -627 -541 -20 -65 -23 -95 -22 -220 0
-129 3 -154 27 -225 83 -250 277 -434 534 -507 111 -31 278 -31 386 0 266 76
457 261 539 522 19 64 23 96 23 215 0 118 -4 152 -23 215 -81 261 -285 456
-549 524 -74 19 -219 28 -288 17z m250 -96 c85 -18 212 -79 280 -136 162 -135
247 -313 248 -524 1 -268 -143 -494 -388 -611 -377 -181 -832 36 -940 446 -23
86 -23 244 0 330 50 192 181 352 360 441 134 66 290 85 440 54z"/>
<path d="M920 2164 c-79 -17 -169 -60 -230 -111 -302 -249 -275 -702 55 -915
172 -112 418 -112 590 0 169 109 265 282 265 477 0 266 -186 495 -448 550 -83
18 -147 18 -232 -1z m237 -88 c187 -50 326 -206 353 -395 21 -153 -25 -288
-139 -402 -95 -94 -202 -139 -331 -139 -234 0 -436 174 -470 406 -36 238 122
473 355 530 68 17 169 17 232 0z"/>
<path d="M954 1966 c-102 -25 -190 -96 -241 -196 -25 -49 -28 -65 -28 -155 0
-89 3 -106 28 -156 34 -70 109 -142 185 -177 48 -22 71 -27 142 -27 71 0 94 5
142 27 76 35 148 104 184 175 26 53 29 67 29 158 0 90 -3 106 -28 155 -52 102
-139 171 -246 196 -67 16 -100 16 -167 0z m178 -92 c61 -20 117 -70 152 -135
58 -105 32 -247 -58 -327 -65 -57 -93 -67 -186 -67 -93 0 -121 10 -186 67
-119 105 -118 301 3 408 76 67 179 87 275 54z"/>
<path d="M970 1758 c-61 -31 -90 -77 -90 -143 0 -37 6 -62 23 -86 24 -37 97
-79 137 -79 40 0 113 42 137 79 32 47 32 125 0 172 -24 37 -97 79 -137 79 -14
0 -46 -10 -70 -22z m121 -87 c52 -42 17 -131 -51 -131 -44 0 -74 31 -74 75 0
44 30 75 74 75 15 0 38 -8 51 -19z"/>
<path d="M2975 2371 c-298 -48 -538 -255 -627 -541 -20 -64 -23 -96 -23 -220
1 -132 3 -152 29 -225 101 -291 329 -482 627 -526 361 -53 719 181 831 541 19
63 23 97 23 215 0 118 -4 152 -23 215 -97 312 -374 528 -697 544 -49 3 -113 1
-140 -3z m249 -96 c85 -18 215 -81 281 -135 163 -136 247 -315 248 -525 0
-268 -143 -494 -388 -611 -326 -156 -730 -15 -889 310 -49 100 -68 184 -69
296 0 269 138 491 378 611 133 66 290 86 439 54z"/>
<path d="M2965 2165 c-360 -79 -552 -479 -386 -803 181 -349 638 -415 911
-131 156 163 196 430 94 632 -116 230 -374 356 -619 302z m230 -90 c237 -62
392 -293 355 -529 -36 -233 -237 -406 -470 -406 -129 1 -228 41 -327 134 -198
185 -198 498 1 683 125 118 281 159 441 118z"/>
<path d="M3003 1971 c-109 -28 -203 -107 -251 -209 -23 -49 -27 -70 -27 -152
0 -85 3 -101 29 -153 36 -71 108 -140 184 -175 48 -22 71 -27 142 -27 71 0 94
5 142 27 76 35 148 104 184 175 26 53 29 67 29 158 0 95 -2 103 -34 163 -64
118 -176 190 -306 198 -33 2 -74 -1 -92 -5z m169 -97 c61 -20 117 -70 153
-135 57 -105 32 -247 -59 -327 -65 -57 -93 -67 -186 -67 -74 0 -91 3 -130 27
-133 78 -182 228 -117 360 64 130 204 188 339 142z"/>
<path d="M3010 1758 c-61 -31 -90 -77 -90 -143 0 -66 29 -111 90 -143 79 -41
175 -10 215 68 23 44 19 121 -8 161 -24 37 -97 79 -137 79 -14 0 -46 -10 -70
-22z m121 -87 c52 -42 17 -131 -51 -131 -44 0 -74 31 -74 75 0 44 30 75 74 75
15 0 38 -8 51 -19z"/>
</g>
</svg>
